<svg width="16" height="30" viewBox="0 0 16 30" fill="none" xmlns="http://www.w3.org/2000/svg">
<path d="M15.6078 11.2745H15.2549C15.098 7.50979 12.0784 4.49018 8.35295 4.2941V0.490179C8.35295 0.254885 8.19608 0.0980225 7.96079 0.0980225C7.7255 0.0980225 7.56863 0.254885 7.56863 0.490179V4.2941C3.80393 4.49018 0.823537 7.50979 0.666674 11.2745H0.392165C0.156871 11.2745 7.62939e-06 11.4314 7.62939e-06 11.6666V13.6666C7.62939e-06 13.9019 0.156871 14.0588 0.392165 14.0588H0.666674L2.11765 29.549C2.11765 29.7451 2.31373 29.9019 2.50981 29.9019H13.2941C13.4902 29.9019 13.6471 29.7451 13.6863 29.549L15.1373 14.0588H15.6078C15.8431 14.0588 16 13.9019 16 13.6666V11.6666C16 11.4314 15.8039 11.2745 15.6078 11.2745ZM8.35295 5.07841C11.6471 5.27449 14.3137 7.94116 14.4706 11.2745H8.35295V5.07841ZM7.56863 5.07841V11.2745H1.45099C1.60785 7.94116 4.2353 5.27449 7.56863 5.07841ZM0.784321 12.0588H7.56863V13.2745H0.784321V12.0588ZM1.45099 14.0588H7.56863V16.6078H1.68628L1.45099 14.0588ZM12.9412 29.1176H2.86275L1.76471 17.3529H7.56863V24.1372C7.56863 24.3725 7.7255 24.5294 7.96079 24.5294C8.19608 24.5294 8.35295 24.3725 8.35295 24.1372V17.3529H14.0392L12.9412 29.1176ZM14.1177 16.5686H8.35295V14.0588H14.3529L14.1177 16.5686ZM15.2157 13.2745H8.35295V12.0588H15.2157V13.2745Z" fill="#A4ACAD"/>
<path d="M4.82354 18.5294C3.88236 18.5294 3.09805 19.3137 3.09805 20.2548C3.09805 21.196 3.88236 21.9803 4.82354 21.9803C5.76471 21.9803 6.54902 21.196 6.54902 20.2548C6.54902 19.3137 5.76471 18.5294 4.82354 18.5294ZM4.82354 21.196C4.31373 21.196 3.88236 20.7647 3.88236 20.2548C3.88236 19.745 4.31373 19.3137 4.82354 19.3137C5.33334 19.3137 5.76471 19.745 5.76471 20.2548C5.76471 20.7647 5.33334 21.196 4.82354 21.196Z" fill="#A4ACAD"/>
<path d="M10.7451 24.2941C9.80392 24.2941 9.01961 25.0784 9.01961 26.0196C9.01961 26.9608 9.76471 27.7451 10.7451 27.7451C11.6863 27.7451 12.4706 26.9608 12.4706 26.0196C12.4706 25.0784 11.6863 24.2941 10.7451 24.2941ZM10.7451 26.9608C10.2353 26.9608 9.80393 26.5294 9.80393 26.0196C9.80393 25.5098 10.1961 25.0784 10.7451 25.0784C11.2549 25.0784 11.6863 25.5098 11.6863 26.0196C11.6863 26.5294 11.2549 26.9608 10.7451 26.9608Z" fill="#A4ACAD"/>
<path d="M10.9804 19.0784C10.1961 19.0784 9.52942 19.7451 9.52942 20.5294C9.52942 21.3137 10.1961 21.9804 10.9804 21.9804C11.7647 21.9804 12.4314 21.3137 12.4314 20.5294C12.4314 19.7451 11.7647 19.0784 10.9804 19.0784ZM10.9804 21.1961C10.6275 21.1961 10.3137 20.8824 10.3137 20.5294C10.3137 20.1765 10.6275 19.8627 10.9804 19.8627C11.3333 19.8627 11.6471 20.1765 11.6471 20.5294C11.6471 20.8824 11.3726 21.1961 10.9804 21.1961Z" fill="#A4ACAD"/>
<path d="M5.72549 24.5686C4.94118 24.5686 4.27451 25.2353 4.27451 26.0196C4.27451 26.8039 4.94118 27.4706 5.72549 27.4706C6.50981 27.4706 7.17647 26.8039 7.17647 26.0196C7.17647 25.2353 6.50981 24.5686 5.72549 24.5686ZM5.72549 26.6862C5.37255 26.6862 5.05883 26.3725 5.05883 26.0196C5.05883 25.6666 5.37255 25.3529 5.72549 25.3529C6.07843 25.3529 6.39216 25.6666 6.39216 26.0196C6.39216 26.4117 6.07843 26.6862 5.72549 26.6862Z" fill="#A4ACAD"/>
</svg>
